<?xml version="1.0" standalone="no"?>
<!DOCTYPE svg PUBLIC "-//W3C//DTD SVG 20010904//EN"
 "http://www.w3.org/TR/2001/REC-SVG-20010904/DTD/svg10.dtd">
<svg version="1.0" xmlns="http://www.w3.org/2000/svg"
 width="611.000000pt" height="611.000000pt" viewBox="0 0 611.000000 611.000000"
 preserveAspectRatio="xMidYMid meet">
<metadata>
Created by potrace 1.14, written by Peter Selinger 2001-2017
</metadata>
<g transform="translate(0.000000,611.000000) scale(0.100000,-0.100000)"
fill="#000000" stroke="none">
<path d="M2859 6106 c-2 -2 -42 -6 -89 -10 -77 -6 -172 -18 -240 -32 -14 -2
-39 -7 -56 -9 -94 -14 -411 -105 -491 -141 -17 -8 -35 -14 -41 -14 -29 0 -357
-161 -457 -225 -198 -125 -270 -177 -410 -294 -84 -71 -248 -231 -305 -297
-71 -83 -121 -146 -168 -209 -28 -38 -55 -74 -60 -80 -34 -42 -158 -254 -213
-365 -105 -211 -167 -371 -224 -583 -26 -97 -31 -116 -40 -172 -3 -16 -8 -37
-11 -46 -2 -10 -6 -31 -9 -49 -2 -17 -6 -43 -9 -58 -3 -15 -8 -49 -11 -77 -3
-27 -10 -84 -14 -125 -9 -77 -6 -518 4 -580 3 -19 10 -71 16 -115 31 -230 105
-504 196 -725 31 -76 139 -301 163 -340 5 -8 35 -58 67 -110 31 -52 61 -99 65
-105 5 -5 36 -48 70 -95 152 -211 356 -423 581 -602 12 -10 27 -21 32 -26 6
-4 60 -42 120 -84 368 -253 777 -419 1210 -493 126 -21 145 -23 235 -32 106
-9 471 -10 565 -1 120 12 275 37 390 64 61 14 119 27 130 29 61 13 316 104
425 152 130 58 276 132 322 164 14 11 29 19 32 19 10 0 225 148 300 207 191
149 411 370 544 548 4 6 21 28 37 50 17 22 32 42 35 45 3 3 33 48 66 100 226
352 370 717 443 1115 38 210 45 290 46 540 0 214 -7 315 -31 471 -25 159 -27
167 -65 314 -119 457 -352 894 -666 1250 -123 140 -349 344 -493 446 -30 21
-57 41 -60 45 -3 4 -19 15 -36 25 -18 11 -69 42 -115 71 -298 183 -664 324
-1014 388 -49 10 -97 18 -105 20 -9 2 -43 6 -75 10 -33 4 -71 9 -85 12 -29 5
-495 14 -501 9z"/>
</g>
</svg>
